# xmcd
#
# Track frame offsets:
# 150
# 15585
# 28320
# 40103
# 58186
# 72833
# 91838
# 103422
# 117376
# 133967
# 145267
# 159392
# 170038
# 186793
#
# Disc length: 2681 seconds
#
#
# Revision: 0
# Processed by: cddbd v1.5.2PL0 Copyright (c) Steve Scherf et al.
# Submitted via: FreeRIP 2.945 
#
DISCID=cc0a770e
DTITLE=Saulo Vitório - Saulo Vitório SAX
DYEAR=2007
DGENRE=Acid Jazz
TTITLE0=Besame Mucho
TTITLE1=Pettit Fleur
TTITLE2=La Paloma
TTITLE3=Carinhoso
TTITLE4=Cama e Mesa
TTITLE5=I Just Call
TTITLE6=Quiera me Mucho
TTITLE7=A Rosa
TTITLE8=Masjestade o Sabiá
TTITLE9=Maria
TTITLE10=Aquarela do Brasil
TTITLE11=La cxumparsita
TTITLE12=Treme From Dving Young
TTITLE13=Amigos para Sempre
EXTD=Saulo Vitório
EXTT0=
EXTT1=
EXTT2=
EXTT3=
EXTT4=
EXTT5=
EXTT6=
EXTT7=
EXTT8=
EXTT9=
EXTT10=
EXTT11=
EXTT12=
EXTT13=
PLAYORDER=
